<svg xmlns="http://www.w3.org/2000/svg" viewBox="0 0 406 425" fill="none">
  <rect width="406" height="425" fill="#1e1a14"/>
  <path d="M201.775 277.488H186.212C178.018 277.488 169.958 275.661 162.9 272.203C153.582 267.639 146.486 260.789 141.805 251.844C134.972 238.792 135.439 226.015 136.325 219.562C138.715 202.152 147.359 191.867 154.187 186.306C166.764 176.064 178.714 175.676 185.858 175.447L186.238 175.434C188.386 175.365 190.482 175.327 192.47 175.327H246.723C249.199 175.327 251.209 177.357 251.209 179.853V217.661C251.209 219.209 249.951 220.463 248.399 220.463C246.848 220.463 245.59 219.209 245.59 217.661V180.93H192.47C190.543 180.93 188.507 180.965 186.42 181.034L186.035 181.047C179.189 181.267 168.843 181.599 157.74 190.647C148.945 197.811 143.612 207.794 141.892 220.325C141.096 226.119 140.673 237.576 146.784 249.254C150.898 257.116 157.156 263.147 165.377 267.177C171.669 270.259 178.874 271.889 186.212 271.889H201.775C203.327 271.889 204.585 273.143 204.585 274.691C204.585 276.238 203.327 277.493 201.775 277.493V277.488Z" fill="#c9a96e"/>
  <path d="M224.722 351.631H135V311.775C135 310.228 136.258 308.973 137.81 308.973C139.361 308.973 140.619 310.228 140.619 311.775V346.027H224.554C231.646 345.596 255.399 342.738 269.22 324.159C274.959 316.443 277.06 308.65 277.695 305.654C281.057 289.843 275.132 276.717 272.431 271.807C259.587 248.478 232.052 245.409 228.953 245.137C227.406 244.999 226.265 243.641 226.403 242.098C226.542 240.555 227.907 239.413 229.45 239.555C232.852 239.857 263.109 243.232 277.358 269.109C280.362 274.566 286.948 289.166 283.197 306.818C282.484 310.171 280.137 318.896 273.736 327.5C258.411 348.101 232.415 351.174 224.809 351.627H224.726L224.722 351.631Z" fill="#c9a96e"/>
  <path d="M209.556 156.791C188.465 156.791 171.307 139.678 171.307 118.642C171.307 97.6066 188.465 80.4934 209.556 80.4934C230.646 80.4934 247.804 97.6066 247.804 118.642C247.804 139.678 230.646 156.791 209.556 156.791ZM209.556 86.0972C191.564 86.0972 176.926 100.697 176.926 118.642C176.926 136.587 191.564 151.188 209.556 151.188C227.547 151.188 242.185 136.587 242.185 118.642C242.185 100.697 227.547 86.0972 209.556 86.0972Z" fill="#c9a96e"/>
  <circle cx="203.112" cy="221.944" r="200.104" stroke="#c9a96e" stroke-width="5.90278"/>
</svg>